<svg width="110" height="126" viewBox="0 0 110 126" fill="none" xmlns="http://www.w3.org/2000/svg">
<g id="body">
<g id="circulogrande">
<circle id="circulo1" cx="54.5" cy="81.5" r="38.5" fill="#F7F7F7"/>
<path id="sombra" d="M93 81.5C93 91.7109 88.9438 101.503 81.7236 108.724C74.5035 115.944 64.7108 120 54.5 120C44.2892 120 34.4965 115.944 27.2764 108.724C20.0562 101.503 16 91.7109 16 81.5C16 81.5 15 80.5 21 83.5C27 86.5 33.4624 93.7177 37.8724 98.1277C42.2823 102.538 48.2634 105.015 54.5 105.015C60.7366 105.015 66.7177 102.538 71.1276 98.1277C75.5376 93.7177 83.515 84 87.5 72C91.485 60 93 81.5 93 81.5Z" fill="#D3D3D3" fill-opacity="0.4"/>
<path id="linea1" d="M32.2867 50H76.5L79.2356 52H29.7021L32.2867 50Z" fill="#D07804"/>
<path id="linea4" d="M24 58L26 55.6158V107.417L24 105V58Z" fill="#D07804"/>
<path id="linea3" d="M85 105.033L83 107.417V55.6158L85 58.0332V105.033Z" fill="#D07804"/>
<path id="linea2" d="M76.6736 113H32.2871L29.6321 111H79.2687L78 112L76.6736 113Z" fill="#D07804"/>
<rect id="sublinea1" x="54" y="52" width="1" height="10" fill="black"/>
<rect id="sublinea2" x="54" y="102" width="1" height="9" fill="black"/>
<rect id="sublinea3" x="75" y="83" width="1" height="8" transform="rotate(-90 75 83)" fill="black"/>
<rect id="sublinea4" x="26" y="83" width="1" height="9" transform="rotate(-90 26 83)" fill="black"/>
<path id="semicirculo3" d="M88.5 66C88.9596 66 89.4148 66.3751 89.8394 67.1037C90.264 67.8324 90.6499 68.9005 90.9749 70.247C91.2999 71.5934 91.5577 73.1919 91.7336 74.9511C91.9095 76.7103 92 78.5958 92 80.5C92 82.4042 91.9095 84.2897 91.7336 86.0489C91.5577 87.8081 91.2999 89.4066 90.9749 90.7531C90.6499 92.0995 90.264 93.1676 89.8394 93.8963C89.4147 94.625 88.9596 95 88.5 95L88.5 80.5L88.5 66Z" fill="#C4C4C4"/>
<path id="semicirculo4" d="M20.5 95C20.0404 95 19.5852 94.6249 19.1606 93.8963C18.736 93.1676 18.3501 92.0995 18.0251 90.753C17.7001 89.4066 17.4423 87.8081 17.2664 86.0489C17.0905 84.2897 17 82.4042 17 80.5C17 78.5958 17.0905 76.7103 17.2664 74.9511C17.4423 73.1919 17.7001 71.5934 18.0251 70.2469C18.3501 68.9005 18.736 67.8324 19.1606 67.1037C19.5853 66.375 20.0404 66 20.5 66L20.5 80.5L20.5 95Z" fill="#C4C4C4"/>
<path id="semicirculo2" d="M69 115.5C69 115.96 68.6249 116.415 67.8963 116.839C67.1676 117.264 66.0995 117.65 64.753 117.975C63.4066 118.3 61.8081 118.558 60.0489 118.734C58.2897 118.909 56.4042 119 54.5 119C52.5958 119 50.7103 118.909 48.9511 118.734C47.1919 118.558 45.5934 118.3 44.2469 117.975C42.9005 117.65 41.8324 117.264 41.1037 116.839C40.375 116.415 40 115.96 40 115.5L54.5 115.5L69 115.5Z" fill="#C4C4C4"/>
<path id="semicirculo1" d="M40 47.5C40 47.0404 40.3751 46.5852 41.1037 46.1606C41.8324 45.736 42.9005 45.3501 44.247 45.0251C45.5934 44.7001 47.1919 44.4423 48.9511 44.2664C50.7103 44.0905 52.5958 44 54.5 44C56.4042 44 58.2897 44.0905 60.0489 44.2664C61.8081 44.4423 63.4066 44.7001 64.7531 45.0251C66.0995 45.3501 67.1676 45.736 67.8963 46.1606C68.625 46.5853 69 47.0404 69 47.5L54.5 47.5L40 47.5Z" fill="#C4C4C4"/>
<path id="externo1" d="M62 45H66.5L70 51H60L62 45Z" fill="#D07804"/>
<path id="remache8" d="M53 57C53 58.1046 52.1046 59 51 59C49.8954 59 49 58.1046 49 57C49 55.8954 49.8954 55 51 55C52.1046 55 53 55.8954 53 57ZM49.6184 57C49.6184 57.763 50.237 58.3816 51 58.3816C51.763 58.3816 52.3816 57.763 52.3816 57C52.3816 56.237 51.763 55.6184 51 55.6184C50.237 55.6184 49.6184 56.237 49.6184 57Z" fill="#C4C4C4"/>
<path id="remache7" d="M60 57C60 58.1046 59.1046 59 58 59C56.8954 59 56 58.1046 56 57C56 55.8954 56.8954 55 58 55C59.1046 55 60 55.8954 60 57ZM56.6184 57C56.6184 57.763 57.237 58.3816 58 58.3816C58.763 58.3816 59.3816 57.763 59.3816 57C59.3816 56.237 58.763 55.6184 58 55.6184C57.237 55.6184 56.6184 56.237 56.6184 57Z" fill="#C4C4C4"/>
<path id="remache6" d="M60 106C60 107.105 59.1046 108 58 108C56.8954 108 56 107.105 56 106C56 104.895 56.8954 104 58 104C59.1046 104 60 104.895 60 106ZM56.6184 106C56.6184 106.763 57.237 107.382 58 107.382C58.763 107.382 59.3816 106.763 59.3816 106C59.3816 105.237 58.763 104.618 58 104.618C57.237 104.618 56.6184 105.237 56.6184 106Z" fill="#C4C4C4"/>
<path id="remache5" d="M53 106C53 107.105 52.1046 108 51 108C49.8954 108 49 107.105 49 106C49 104.895 49.8954 104 51 104C52.1046 104 53 104.895 53 106ZM49.6184 106C49.6184 106.763 50.237 107.382 51 107.382C51.763 107.382 52.3816 106.763 52.3816 106C52.3816 105.237 51.763 104.618 51 104.618C50.237 104.618 49.6184 105.237 49.6184 106Z" fill="#C4C4C4"/>
<path id="remache4" d="M33 86C33 87.1046 32.1046 88 31 88C29.8954 88 29 87.1046 29 86C29 84.8954 29.8954 84 31 84C32.1046 84 33 84.8954 33 86ZM29.6184 86C29.6184 86.763 30.237 87.3816 31 87.3816C31.763 87.3816 32.3816 86.763 32.3816 86C32.3816 85.237 31.763 84.6184 31 84.6184C30.237 84.6184 29.6184 85.237 29.6184 86Z" fill="#C4C4C4"/>
<path id="remache3" d="M33 80C33 81.1046 32.1046 82 31 82C29.8954 82 29 81.1046 29 80C29 78.8954 29.8954 78 31 78C32.1046 78 33 78.8954 33 80ZM29.6184 80C29.6184 80.763 30.237 81.3816 31 81.3816C31.763 81.3816 32.3816 80.763 32.3816 80C32.3816 79.237 31.763 78.6184 31 78.6184C30.237 78.6184 29.6184 79.237 29.6184 80Z" fill="#C4C4C4"/>
<path id="remache2" d="M81 79C81 80.1046 80.1046 81 79 81C77.8954 81 77 80.1046 77 79C77 77.8954 77.8954 77 79 77C80.1046 77 81 77.8954 81 79ZM77.6184 79C77.6184 79.763 78.237 80.3816 79 80.3816C79.763 80.3816 80.3816 79.763 80.3816 79C80.3816 78.237 79.763 77.6184 79 77.6184C78.237 77.6184 77.6184 78.237 77.6184 79Z" fill="#C4C4C4"/>
<path id="remache1" d="M81 89C81 90.1046 80.1046 91 79 91C77.8954 91 77 90.1046 77 89C77 87.8954 77.8954 87 79 87C80.1046 87 81 87.8954 81 89ZM77.6184 89C77.6184 89.763 78.237 90.3816 79 90.3816C79.763 90.3816 80.3816 89.763 80.3816 89C80.3816 88.237 79.763 87.6184 79 87.6184C78.237 87.6184 77.6184 88.237 77.6184 89Z" fill="#C4C4C4"/>
</g>
<g id="circulopeque">
<circle id="circulo2" cx="55" cy="82" r="19.75" fill="#D07804" stroke="black" stroke-width="0.5"/>
<circle id="circulo3" cx="55" cy="82" r="15" fill="#F5F5F5"/>
<path id="lineasinternas1" d="M53 88H57L59 98H51L53 88Z" fill="#D07804"/>
<path id="lineasinternas2" d="M57 76H53L51 66H59L57 76Z" fill="#D07804"/>
<path id="lineasinternas3" d="M61 84V80L71 78V86L61 84Z" fill="#D07804"/>
<path id="lineasinternas4" d="M49 80V84L39 86V78L49 80Z" fill="#D07804"/>
<path id="interno1" d="M59 73.5L59.5 70.5C63.757 71.2631 65.6163 72.1125 67.5 77L64.5 78C63.9426 75.0909 62.3163 73.7477 59 73.5Z" fill="#C4C4C4"/>
<path id="interno2" d="M55 78C56.0609 78 57.0783 78.4214 57.8284 79.1716C58.5786 79.9217 59 80.9391 59 82C59 83.0609 58.5786 84.0783 57.8284 84.8284C57.0783 85.5786 56.0609 86 55 86L55 82L55 78Z" fill="#C4C4C4"/>
<path id="interno3" d="M59.5 95L57 85.5L58.5 84L68 86.5C66.9815 90.8373 64.6781 92.9964 59.5 95Z" fill="#C4C4C4"/>
<circle id="interno4" cx="55" cy="82" r="1" fill="#C4C4C4"/>
<circle id="interno5" cx="63" cy="87" r="2" fill="#F5F5F5"/>
<rect id="interno6" x="53" y="78" width="1" height="3" fill="#C4C4C4"/>
</g>
<g id="cabezaa">
<path id="cabeza" d="M82 43.5C82 39.8886 81.3016 36.3127 79.9447 32.9762C78.5879 29.6398 76.5991 26.6082 74.0919 24.0546C71.5847 21.501 68.6082 19.4753 65.3325 18.0933C62.0567 16.7113 58.5457 16 55 16C51.4543 16 47.9433 16.7113 44.6675 18.0933C41.3918 19.4753 38.4153 21.501 35.9081 24.0546C33.4009 26.6082 31.4121 29.6398 30.0553 32.9762C28.6984 36.3127 28 39.8887 28 43.5L55 43.5H82Z" fill="#F6F6F6"/>
<ellipse id="ojogrande" cx="60" cy="33" rx="9" ry="8" fill="black"/>
<path id="ojopeque&#195;&#177;o" d="M79 37C79 39.2091 77.2091 41 75 41C72.7909 41 71 39.2091 71 37C71 34.7909 72.7909 33 75 33C77.2091 33 79 34.7909 79 37ZM72.0047 37C72.0047 38.6543 73.3457 39.9953 75 39.9953C76.6543 39.9953 77.9953 38.6543 77.9953 37C77.9953 35.3457 76.6543 34.0047 75 34.0047C73.3457 34.0047 72.0047 35.3457 72.0047 37Z" fill="black"/>
<circle id="ojopeque&#195;&#177;o1" cx="75" cy="37" r="2" fill="black"/>
<path id="lineacabeza" d="M38.2174 22H72L74 24H36L38.2174 22Z" fill="#D07804"/>
<rect id="antena1" x="36" y="10" width="1" height="20" fill="black"/>
<rect id="antena2" x="38" y="19" width="2" height="11" fill="black"/>
<path id="coronilla" d="M67 20.5C67 20.0404 66.7025 19.5852 66.1246 19.1606C65.5467 18.736 64.6996 18.3501 63.6317 18.0251C62.5639 17.7001 61.2961 17.4423 59.9009 17.2664C58.5056 17.0905 57.0102 17 55.5 17C53.9898 17 52.4944 17.0905 51.0991 17.2664C49.7039 17.4423 48.4361 17.7001 47.3683 18.0251C46.3004 18.3501 45.4533 18.736 44.8754 19.1606C44.2975 19.5852 44 20.0404 44 20.5L55.5 20.5H67Z" fill="#C4C4C4"/>
<rect id="lineaabajo" x="28" y="41" width="54" height="2" fill="#C4C4C4"/>
<ellipse id="brillo" cx="63" cy="29.5" rx="3" ry="2.5" fill="white"/>
<circle id="brillo_2" cx="67" cy="32" r="1" fill="white"/>
<rect id="lineacabeza1" x="29" y="38" width="9" height="3" fill="#D07804"/>
<rect id="lineacabeza2" x="39" y="38" width="4" height="3" fill="#D07804"/>
<rect id="lineacabeza3" x="45" y="38" width="2" height="3" fill="#D07804"/>
<rect id="lineacabeza4" x="68" y="38" width="2" height="3" fill="#D07804"/>
<path id="dise&#195;&#177;o1" d="M49 41V31.3251C49 30.4537 49.2029 29.5942 49.5926 28.8148V28.8148C49.8624 28.2751 50.2175 27.7825 50.6441 27.3559L51.1793 26.8207C51.7229 26.2771 52.3505 25.8247 53.0381 25.481V25.481C53.6758 25.1621 54.3576 24.9404 55.0608 24.8232L55.935 24.6775C56.6438 24.5594 57.3611 24.5 58.0797 24.5H59.5H62.3758C62.7912 24.5 63.206 24.5343 63.6158 24.6026L64.605 24.7675C65.5123 24.9187 66.3496 25.3496 67 26V26V26C67.665 26.665 68.2628 27.3941 68.7845 28.1767L69 28.5L69.0977 28.6466C69.6861 29.5291 70 30.566 70 31.6266V31.6266V31.6266C70 31.8328 70.1672 32 70.3734 32H72H75.5H75.8374C76.2732 32 76.7029 32.1014 77.0926 32.2963V32.2963C77.3624 32.4312 77.6087 32.6087 77.8221 32.8221L78.5 33.5L79.1779 34.1779C79.3913 34.3913 79.5688 34.6376 79.7037 34.9074V34.9074C79.8986 35.2971 80 35.7268 80 36.1626V36.5V38V39V40V41" stroke="black" stroke-width="0.2"/>
<path id="dise&#195;&#177;o2" d="M70 32V32C70 34.5476 68.9253 36.977 67.0402 38.6907L64.5 41" stroke="black" stroke-width="0.2"/>
<path id="dise&#195;&#177;o3" d="M49 36H43V34H49" stroke="black" stroke-width="0.2"/>
</g>
</g>
</svg>
